<svg preserveAspectRatio="none" overflow="visible" style="display: block;" width="26.3" height="26.3" viewBox="0 0 26.3 26.3" fill="none" xmlns="http://www.w3.org/2000/svg">
<g id="Group 1618873279">
<path id="Vector" d="M13.15 23.15C15.8022 23.15 18.3457 22.0964 20.2211 20.2211C22.0964 18.3457 23.15 15.8022 23.15 13.15C23.15 10.4978 22.0964 7.9543 20.2211 6.07893C18.3457 4.20357 15.8022 3.15 13.15 3.15C10.4978 3.15 7.9543 4.20357 6.07893 6.07893C4.20357 7.9543 3.15 10.4978 3.15 13.15C3.15 15.8022 4.20357 18.3457 6.07893 20.2211C7.9543 22.0964 10.4978 23.15 13.15 23.15Z" stroke="#179EFF" stroke-width="1.3" stroke-linecap="round" stroke-linejoin="round"/>
<path id="Vector_2" d="M13.15 15.65C13.813 15.65 14.4489 15.3866 14.9178 14.9178C15.3866 14.4489 15.65 13.813 15.65 13.15C15.65 12.487 15.3866 11.8511 14.9178 11.3822C14.4489 10.9134 13.813 10.65 13.15 10.65C12.487 10.65 11.8511 10.9134 11.3822 11.3822C10.9134 11.8511 10.65 12.487 10.65 13.15C10.65 13.813 10.9134 14.4489 11.3822 14.9178C11.8511 15.3866 12.487 15.65 13.15 15.65Z" stroke="#179EFF" stroke-width="1.3" stroke-linecap="round" stroke-linejoin="round"/>
<path id="Vector_3" d="M13.15 0.65V3.15" stroke="#179EFF" stroke-width="1.3" stroke-linecap="round" stroke-linejoin="round"/>
<path id="Vector_4" d="M13.15 25.65V23.15" stroke="#179EFF" stroke-width="1.3" stroke-linecap="round" stroke-linejoin="round"/>
<path id="Vector_5" d="M19.4 23.9766L18.15 21.8141" stroke="#179EFF" stroke-width="1.3" stroke-linecap="round" stroke-linejoin="round"/>
<path id="Vector_6" d="M11.9 10.9844L6.9 2.32187" stroke="#179EFF" stroke-width="1.3" stroke-linecap="round" stroke-linejoin="round"/>
<path id="Vector_7" d="M23.9766 19.4L21.8141 18.15" stroke="#179EFF" stroke-width="1.3" stroke-linecap="round" stroke-linejoin="round"/>
<path id="Vector_8" d="M2.32187 6.9L4.48438 8.15" stroke="#179EFF" stroke-width="1.3" stroke-linecap="round" stroke-linejoin="round"/>
<path id="Vector_9" d="M15.65 13.15H25.65" stroke="#179EFF" stroke-width="1.3" stroke-linecap="round" stroke-linejoin="round"/>
<path id="Vector_10" d="M0.65 13.15H3.15" stroke="#179EFF" stroke-width="1.3" stroke-linecap="round" stroke-linejoin="round"/>
<path id="Vector_11" d="M23.9766 6.9L21.8141 8.15" stroke="#179EFF" stroke-width="1.3" stroke-linecap="round" stroke-linejoin="round"/>
<path id="Vector_12" d="M2.32187 19.4L4.48438 18.15" stroke="#179EFF" stroke-width="1.3" stroke-linecap="round" stroke-linejoin="round"/>
<path id="Vector_13" d="M19.4 2.32187L18.15 4.48438" stroke="#179EFF" stroke-width="1.3" stroke-linecap="round" stroke-linejoin="round"/>
<path id="Vector_14" d="M11.9 15.3141L6.9 23.9766" stroke="#179EFF" stroke-width="1.3" stroke-linecap="round" stroke-linejoin="round"/>
</g>
</svg>
