<svg preserveAspectRatio="none" width="100%" height="100%" overflow="visible" style="display: block;" viewBox="0 0 25.2203 25.2203" fill="none" xmlns="http://www.w3.org/2000/svg">
<g id="logo / social_x">
<g id="Keylines">
<path id="bg" d="M24 0V24H0V0H24Z" fill="white" fill-opacity="0.01"/>
</g>
<path id="Union" d="M20.7569 4.89539C21.1391 4.45862 21.0948 3.79474 20.658 3.41256C20.2213 3.03039 19.5574 3.07465 19.1752 3.51142L13.8047 9.6492L9.24742 3.5729C9.04896 3.30829 8.73751 3.15256 8.40674 3.15256H4.20335C3.80532 3.15256 3.44145 3.37744 3.26345 3.73345C3.08544 4.08946 3.12386 4.51549 3.36268 4.83391L10.1267 13.8526L4.46335 20.325C4.08118 20.7617 4.12544 21.4256 4.56221 21.8078C4.99898 22.19 5.66286 22.1457 6.04504 21.709L11.4156 15.5712L15.9728 21.6475C16.1713 21.9121 16.4828 22.0678 16.8135 22.0678H21.0169C21.4149 22.0678 21.7788 21.8429 21.9568 21.4869C22.1348 21.1309 22.0964 20.7049 21.8576 20.3865L15.0936 11.3678L20.7569 4.89539Z" fill="#1D3E69"/>
</g>
</svg>
