<svg preserveAspectRatio="xMidYMid meet" style="display: block;" width="121.925" height="25.5842" viewBox="0 0 121.925 25.5842" fill="none" xmlns="http://www.w3.org/2000/svg">
<g id="download 1 [Vectorized]">
<path id="Vector" d="M87.2152 8.59175C87.8873 8.50578 88.8244 8.56278 89.4537 8.84337C90.1115 9.13676 91.1486 10.1984 90.7729 10.97C89.9895 11.3463 89.4179 10.6474 89.1881 10.1588C89.0411 9.84514 87.6546 9.78921 87.2325 9.8386C86.4133 9.93463 85.8394 10.4231 85.9078 11.3472C86.5544 13.1053 90.308 12.0126 91.6225 12.4092C91.6314 12.4118 92.2392 13.3815 90.9313 13.5521C90.9313 13.9121 90.9337 14.2721 90.9378 14.6321C90.9474 15.0959 90.9813 15.4785 91.3272 15.8104L91.8029 16.088C91.7922 16.5088 91.9713 17.3542 91.5534 17.4917C90.9986 17.4172 90.4378 16.7779 90.0877 16.3814C88.7452 18.336 84.8059 17.7283 84.3046 15.3174C84.0593 14.1384 84.6678 13.4964 85.5804 12.9306C85.5054 12.8737 85.4322 12.8142 85.3613 12.7522C84.8726 12.3325 84.5511 11.8162 84.5052 11.1571C84.4612 10.5911 84.6463 10.0311 85.019 9.60275C85.5846 8.95927 86.3758 8.64738 87.2152 8.59175ZM87.3247 16.1815C89.4495 16.2251 89.7799 15.381 89.6335 13.4644C89.1078 13.4532 88.6297 13.4401 88.1029 13.4722C87.2968 13.5302 86.4544 13.519 85.8668 14.1607C85.4197 14.6487 85.681 15.3465 86.1359 15.7192C86.5335 16.0452 86.8431 16.0923 87.3247 16.1815Z" fill="#1D2384"/>
<path id="Vector_2" d="M115.763 11.0894C116.783 11.1093 117.132 11.3398 117.86 12.0161C117.916 10.9996 118.334 11.1857 119.207 11.1984C119.264 11.692 119.238 12.8058 119.238 13.3544L119.238 17.419C118.885 17.4401 118.377 17.4239 118.013 17.4234L117.9 16.5431C117.737 16.722 117.532 16.8738 117.34 17.0241C115.419 18.3702 112.741 17.0258 112.637 14.658C112.54 12.4382 113.559 11.2508 115.763 11.0894ZM116.413 16.2156C117.48 15.9438 118.124 14.8584 117.851 13.7927C117.577 12.7269 116.49 12.0852 115.424 12.3601C114.36 12.6345 113.72 13.7181 113.993 14.7817C114.266 15.8453 115.349 16.4869 116.413 16.2156Z" fill="#1D2384"/>
<path id="Vector_3" d="M42.4115 11.1475C44.1549 10.781 45.8653 11.8976 46.2297 13.6406C46.5941 15.3835 45.4745 17.0912 43.73 17.4531C41.989 17.8143 40.2842 16.6979 39.9204 14.9583C39.5566 13.2187 40.6714 11.5135 42.4115 11.1475ZM43.2953 16.2393C44.5303 15.959 45.1457 14.9896 44.8546 13.7691C44.7417 13.2854 44.4373 12.8682 44.011 12.6129C43.6641 12.4006 43.2599 12.3006 42.8539 12.3267C41.686 12.5689 41.0467 13.5946 41.2812 14.7425C41.3766 15.2338 41.6637 15.667 42.0791 15.9463C42.4738 16.2075 42.8286 16.278 43.2953 16.2393Z" fill="#1D2384"/>
<path id="Vector_4" d="M96.8038 8.66467C97.2717 8.61457 97.6366 8.62397 98.1034 8.63182C98.1218 9.16784 98.0093 12.1058 98.179 12.3463C98.7321 12.4612 102.31 12.5437 102.618 12.2682C102.733 11.8958 102.67 9.28773 102.682 8.689C103.215 8.62332 103.605 8.62492 104.138 8.62427C104.12 9.66079 104.213 17.2097 104.053 17.4316L102.702 17.4348C102.612 16.1861 102.743 14.9514 102.658 13.7296C101.909 13.7287 98.6832 13.6456 98.2248 13.8366C98.0123 14.1411 98.1099 16.8576 98.1141 17.4172C97.6718 17.4439 97.1294 17.4304 96.6793 17.4307C96.5746 15.9572 96.7109 13.87 96.6645 12.3387C96.6484 11.7932 96.6329 9.15047 96.6907 8.72119L96.8038 8.66467Z" fill="#1D2384"/>
<path id="Vector_5" d="M65.2789 11.0833C68.046 10.963 68.8479 12.3701 68.7979 14.9371C67.8418 14.8567 66.8625 14.8906 65.9028 14.9046C65.4498 14.9111 64.3948 14.7219 64.0311 14.916C63.45 15.6943 66.0659 16.9399 67.1834 15.869C67.2989 15.7651 67.3322 15.7491 67.4715 15.6832C68.0335 15.6858 68.3675 16.2996 68.0311 16.7536C67.7263 17.1642 67.0572 17.3691 66.5654 17.4437C65.5557 17.5957 64.5377 17.5525 63.7013 16.9126C62.3022 15.8431 62.0343 13.6409 63.0976 12.2459C63.7013 11.4536 64.3287 11.223 65.2789 11.0833ZM66.2767 13.6703C66.4964 13.6765 67.2429 13.7214 67.3995 13.6526C67.5257 13.4617 67.5001 13.5412 67.5162 13.3097C67.3816 12.9242 66.9524 12.6382 66.5958 12.4649C66.0445 12.197 65.7683 12.2127 65.192 12.2776C64.7639 12.4466 63.9197 12.9212 63.9174 13.4363C64.1531 13.8588 65.7325 13.673 66.2767 13.6703Z" fill="#1D2384"/>
<path id="Vector_6" d="M108.345 11.0858C110.617 10.9165 112.049 12.2867 111.902 14.6553C111.86 15.3409 107.094 14.3245 106.902 15.1957C106.916 15.2383 106.942 15.3026 106.971 15.3362C107.909 16.4071 109.314 16.5788 110.462 15.7439L110.558 15.6652C111.036 15.6979 111.453 16.4176 111.107 16.7642C110.115 17.7605 107.757 17.7151 106.699 16.8891C105.322 15.8128 105.109 13.5976 106.155 12.2462C106.773 11.4481 107.387 11.2198 108.345 11.0858ZM109.318 13.6735C109.569 13.6805 110.287 13.727 110.479 13.6459C110.524 13.4886 110.456 13.1561 110.372 13.0213C109.949 12.3424 108.999 12.1901 108.284 12.2712C107.828 12.4277 106.868 12.9706 107.057 13.5334C107.392 13.82 108.76 13.654 109.318 13.6735Z" fill="#1D2384"/>
<path id="Vector_7" d="M35.6918 8.53336C36.8973 8.42989 37.5955 8.74666 38.6331 9.30951C38.8411 9.42238 38.9994 9.50538 39.07 9.74302C39.063 10.0059 38.5955 10.587 38.3872 10.5747C37.9268 10.5476 37.4347 10.1823 36.969 10.0585C35.2054 9.58981 33.4791 10.2391 32.9371 12.0789C32.6819 12.9353 32.7794 13.8582 33.2079 14.6425C33.6374 15.4281 34.1868 15.8004 35.0459 16.0533C36.1759 16.386 36.8602 16.1295 37.8361 15.5946C37.974 15.5018 38.2148 15.3975 38.3723 15.3237C38.7789 15.6057 38.9606 15.8112 39.2758 16.1862C39.2532 16.2159 39.2297 16.245 39.2054 16.2734C37.8145 17.911 34.3399 17.9345 32.9006 16.518C29.9834 13.6469 31.4249 8.81193 35.6918 8.53336Z" fill="#1D2384"/>
<path id="Vector_8" d="M50.6619 11.1474C50.7395 11.1395 50.8174 11.1347 50.8955 11.1328C51.6309 11.1084 52.2578 11.2574 52.8098 11.7729C53.816 12.7128 53.6627 14.0843 53.6604 15.3462C53.6566 16.0411 53.6661 16.736 53.6889 17.4305L52.3279 17.4277C52.3098 16.8037 52.3559 16.1642 52.335 15.5466C52.303 14.6067 52.5615 13.4199 51.8092 12.7073C51.3606 12.2825 50.7292 12.2513 50.1736 12.4404C49.0789 13.0825 49.013 13.7601 48.9998 14.9523C48.9907 15.7773 48.9995 16.6106 48.9975 17.4362L47.7581 17.437C47.6979 16.7451 47.6472 11.8951 47.7632 11.3492C47.9913 11.138 48.5356 11.1934 48.873 11.1938L49.0309 12.0108C49.676 11.4454 49.8261 11.3163 50.6619 11.1474Z" fill="#1D2384"/>
<path id="Vector_9" d="M58.1448 11.1462C58.2044 11.1408 58.2642 11.1373 58.324 11.1358C59.0124 11.1149 59.6883 11.2505 60.1997 11.7492C61.204 12.7275 61.0522 13.9143 61.0427 15.1848C61.0307 15.9309 61.0337 16.6772 61.0516 17.4232C60.6158 17.4379 60.1342 17.4279 59.6948 17.428C59.7091 15.9794 60.3122 11.253 57.4594 12.4993C56.2528 13.2318 56.3704 14.2042 56.3759 15.4729C56.3786 16.1112 56.4321 16.7973 56.4007 17.4309L55.1498 17.4411C55.0357 15.5656 55.1652 13.5656 55.1251 11.6787C55.1115 11.0365 55.7766 11.189 56.2514 11.2175C56.3191 11.4223 56.3926 11.7713 56.4461 11.9907C57.1131 11.4232 57.281 11.2854 58.1448 11.1462Z" fill="#1D2384"/>
<path id="Vector_10" d="M72.5517 11.0878C73.2477 11.0634 74.2877 11.1928 74.7801 11.7127C75.1867 12.1414 74.5824 12.5743 74.3044 12.7917C73.5471 12.6576 73.0839 12.1201 72.1886 12.4256C71.089 12.8009 70.6133 13.9453 71.0044 15.0278C71.1717 15.4794 71.5123 15.846 71.9504 16.0469C73.2995 16.6679 73.8769 15.5225 74.4586 15.8223C74.6937 16.0271 75.27 16.4378 74.9206 16.7781C73.9043 17.7685 71.7403 17.7556 70.683 16.8609C69.331 15.717 69.116 13.5055 70.2668 12.1512C70.9223 11.3791 71.5736 11.1802 72.5517 11.0878Z" fill="#1D2384"/>
<path id="Vector_11" d="M78.0627 9.47427C78.2085 9.4569 78.2389 9.45517 78.3687 9.52348C78.5913 9.80342 78.5294 10.7945 78.5359 11.2242C79.0331 11.2504 79.7225 11.2109 80.2297 11.1891C80.319 11.6838 80.2904 11.9183 80.2463 12.4122C79.6879 12.3891 79.1289 12.3711 78.5699 12.3581C78.5056 12.8521 78.4961 13.3949 78.483 13.8943C78.4532 15.0011 78.3347 16.8764 80.066 16.0128C80.263 16.3579 80.6029 16.8136 80.4053 17.1918C79.7439 17.6133 78.3311 17.5394 77.8078 16.9704C76.9226 16.0075 77.2244 13.6828 77.2143 12.4068C76.8654 12.3665 76.3886 12.3751 76.0278 12.3722C75.8069 10.4848 76.5154 11.4707 77.0411 11.2366C77.3232 10.9303 77.2262 10.156 77.2357 9.66746C77.4941 9.58149 77.7936 9.52895 78.0627 9.47427Z" fill="#1D2384"/>
<g id="logo / youtube">
<rect x="-0.115234" y="0.291992" width="25" height="25" rx="4" fill="#1D2384"/>
</g>
<path id="Vector_12" d="M9.82483 16.4892C10.2901 15.2646 10.2458 13.7418 10.8577 12.5741C11.0168 12.2705 11.2524 11.9987 11.5908 11.898C11.8181 11.8304 12.0561 11.8421 12.2643 11.9598C13.0304 12.3928 13.5602 15.4784 13.8144 16.4008C14.0912 15.4605 14.2412 12.6093 15.7546 13.032C16.3109 13.1874 16.702 14.8513 16.8853 15.3926C17.5994 15.3276 21.2225 15.1942 21.6053 15.5045C21.5801 15.686 21.5774 15.8109 21.4665 15.9583C21.0739 16.2556 17.7094 16.0552 17.0093 16.1116C16.0248 16.191 16.0073 14.394 15.5257 13.8211C14.9252 14.1337 14.6719 17.3045 13.8868 17.5389C12.8534 17.8476 12.6852 14.098 12.36 13.457C12.1943 13.1305 12.2801 12.8715 11.9081 12.6529C10.9625 12.6919 11.0393 17.503 9.7625 17.5402C8.85806 17.2657 8.87461 14.6481 8.33226 13.8379L8.23135 13.8318C7.6209 14.4571 7.83968 15.2292 7.08956 16.0837C6.47386 16.1293 2.63643 16.1693 2.20577 16.0133C2.08778 15.8706 2.0681 15.7014 2.1673 15.5481C2.68127 15.2473 5.8419 15.3695 6.65889 15.3677C6.96513 14.8272 7.08069 13.9811 7.36383 13.5689C8.9154 11.3101 9.647 15.6475 9.82483 16.4892Z" fill="#F3F3FD"/>
<path id="Vector_13" d="M16.8848 15.3925C17.5989 15.3275 21.222 15.1942 21.6047 15.5044C20.7574 15.6268 17.7078 15.4986 16.8848 15.3925Z" fill="#A5A5EF"/>
<path id="Vector_14" d="M14.9653 9.43802C15.3585 9.2907 15.7988 9.34271 16.1468 9.5776C16.4948 9.8125 16.7075 10.2012 16.7176 10.6208C16.731 11.1799 16.3841 11.6847 15.857 11.8729C15.1861 12.1123 14.4474 11.7662 14.2025 11.0975C13.9577 10.4289 14.2982 9.68797 14.9653 9.43802Z" fill="#F3F3FD"/>
<path id="Vector_15" d="M15.368 10.0417C16.1394 10.171 16.0638 10.8354 15.4842 11.2418C14.7807 11.0812 14.7666 10.4481 15.368 10.0417Z" fill="#1D2384"/>
<path id="Vector_16" d="M11.4112 8.18858C12.0436 7.98414 12.7278 8.29312 12.9923 8.9025C13.1374 9.2367 13.1342 9.61666 12.9836 9.94842C12.833 10.2802 12.5491 10.5328 12.2019 10.644C11.5239 10.8609 10.7981 10.4881 10.58 9.8108C10.3619 9.13353 10.7338 8.40759 11.4112 8.18858Z" fill="#F3F3FD"/>
<path id="Vector_17" d="M11.8091 8.80835C12.5525 9.01284 12.5264 9.71885 11.8184 10.0134C11.1561 9.80298 11.0486 9.04093 11.8091 8.80835Z" fill="#1D2384"/>
<path id="Vector_18" d="M8.07609 9.37523C8.53438 9.32865 8.98231 9.53189 9.24891 9.90726C9.51556 10.2826 9.55973 10.7723 9.36458 11.1893C9.16943 11.6063 8.76508 11.8863 8.30589 11.9224C7.60703 11.9774 6.99401 11.4601 6.93103 10.7623C6.8681 10.0646 7.37866 9.44604 8.07609 9.37523Z" fill="#F3F3FD"/>
<path id="Vector_19" d="M8.02811 10.1341C8.21129 10.0661 8.4171 10.1035 8.56462 10.2317C8.71221 10.3598 8.77787 10.5583 8.7359 10.7491C8.69399 10.9399 8.55111 11.0926 8.3634 11.1472C8.0874 11.2274 7.7973 11.075 7.70704 10.8023C7.61673 10.5295 7.75866 10.2342 8.02811 10.1341Z" fill="#1D2384"/>
<path id="Vector_20" d="M121.111 8.6547C121.34 8.63352 121.687 8.6312 121.925 8.62305V17.4366L121.064 17.4306C121.02 15.7198 121.083 13.8756 121.062 12.1509C121.051 11.3083 121.016 9.41669 121.111 8.6547Z" fill="#1D2384"/>
</g>
</svg>
