<svg preserveAspectRatio="xMidYMid meet" width="100%" height="100%" overflow="visible" style="display: block;" viewBox="0 0 20.3 25.0137" fill="none" xmlns="http://www.w3.org/2000/svg">
<g id="Layer_1">
<path id="Vector" d="M16.593 24.8563H2.45771C2.31485 24.8563 2.20057 24.7392 2.20057 24.5927C2.20057 24.4463 2.31485 24.3291 2.45771 24.3291H16.593C18.2715 24.3291 19.6357 22.9305 19.6357 21.2097V0.677225H4.76478V6.72566C4.76478 6.87212 4.65049 6.98928 4.50764 6.98928C4.36479 6.98928 4.25051 6.87212 4.25051 6.72566V0.413612C4.25051 0.267161 4.36479 0.15 4.50764 0.15H19.8929C20.0357 0.15 20.15 0.267161 20.15 0.413612V21.217C20.15 23.2307 18.5572 24.8637 16.593 24.8637V24.8563Z" fill="#17A5FB" stroke="#17A5FB" stroke-width="0.3"/>
<path id="Vector_2" d="M2.45707 24.8561C1.18568 24.8561 0.15 23.7944 0.15 22.4909V6.71813C0.15 6.57168 0.264282 6.45452 0.407135 6.45452H4.507C4.64986 6.45452 4.76414 6.57168 4.76414 6.71813V22.4909C4.76414 23.7944 3.72846 24.8561 2.45707 24.8561ZM0.664269 6.98174V22.4909C0.664269 23.5088 1.47139 24.3289 2.45707 24.3289C3.44275 24.3289 4.24987 23.5014 4.24987 22.4909V6.98174H0.664269Z" fill="#17A5FB" stroke="#17A5FB" stroke-width="0.3"/>
<path id="Vector_3" d="M12.1957 8.55599H7.06729C6.92444 8.55599 6.81016 8.43883 6.81016 8.29238V4.08922C6.81016 3.94277 6.92444 3.82561 7.06729 3.82561H12.1957C12.3386 3.82561 12.4528 3.94277 12.4528 4.08922V8.29238C12.4528 8.43883 12.3386 8.55599 12.1957 8.55599ZM7.32443 8.02876H11.9386V4.34551H7.32443V8.02876Z" fill="#17A5FB" stroke="#17A5FB" stroke-width="0.3"/>
<path id="Vector_4" d="M17.8429 5.75713H13.7431C13.6002 5.75713 13.4859 5.63997 13.4859 5.49352C13.4859 5.34707 13.6002 5.22991 13.7431 5.22991H17.8429C17.9858 5.22991 18.1001 5.34707 18.1001 5.49352C18.1001 5.63997 17.9858 5.75713 17.8429 5.75713Z" fill="#17A5FB" stroke="#17A5FB" stroke-width="0.3"/>
<path id="Vector_5" d="M17.8429 8.55596H13.7431C13.6002 8.55596 13.4859 8.4388 13.4859 8.29235C13.4859 8.1459 13.6002 8.02873 13.7431 8.02873H17.8429C17.9858 8.02873 18.1001 8.1459 18.1001 8.29235C18.1001 8.4388 17.9858 8.55596 17.8429 8.55596Z" fill="#17A5FB" stroke="#17A5FB" stroke-width="0.3"/>
<path id="Vector_6" d="M17.5273 11.8431H7.05669C6.92407 11.8431 6.81797 11.7259 6.81797 11.5795C6.81797 11.433 6.92407 11.3158 7.05669 11.3158H17.5273C17.66 11.3158 17.766 11.433 17.766 11.5795C17.766 11.7259 17.66 11.8431 17.5273 11.8431Z" fill="#17A5FB" stroke="#17A5FB" stroke-width="0.3"/>
<path id="Vector_7" d="M17.8441 19.8529H12.7157C12.5729 19.8529 12.4586 19.7357 12.4586 19.5893V15.3861C12.4586 15.2396 12.5729 15.1225 12.7157 15.1225H17.8441C17.987 15.1225 18.1013 15.2396 18.1013 15.3861V19.5893C18.1013 19.7357 17.987 19.8529 17.8441 19.8529ZM12.9729 19.3256H17.587V15.6424H12.9729V19.3256Z" fill="#17A5FB" stroke="#17A5FB" stroke-width="0.3"/>
<path id="Vector_8" d="M10.6633 17.7513H6.56338C6.42053 17.7513 6.30625 17.6341 6.30625 17.4877C6.30625 17.3412 6.42053 17.224 6.56338 17.224H10.6633C10.8061 17.224 10.9204 17.3412 10.9204 17.4877C10.9204 17.6341 10.8061 17.7513 10.6633 17.7513Z" fill="#17A5FB" stroke="#17A5FB" stroke-width="0.3"/>
<path id="Vector_9" d="M10.6633 19.8509H6.56338C6.42053 19.8509 6.30625 19.7337 6.30625 19.5873C6.30625 19.4408 6.42053 19.3237 6.56338 19.3237H10.6633C10.8061 19.3237 10.9204 19.4408 10.9204 19.5873C10.9204 19.7337 10.8061 19.8509 10.6633 19.8509Z" fill="#17A5FB" stroke="#17A5FB" stroke-width="0.3"/>
</g>
</svg>
