<svg preserveAspectRatio="none" overflow="visible" style="display: block;" width="103.804" height="142.983" viewBox="0 0 103.804 142.983" fill="none" xmlns="http://www.w3.org/2000/svg">
<g id="a" clip-path="url(#clip0_0_4)">
<path id="Vector" d="M103.804 17.1906L0.222716 16.9805L1.42745e-05 125.827C-0.0209954 135.244 23.1526 142.925 51.7551 142.984C80.3576 143.042 103.561 135.454 103.582 126.037C103.582 126.025 103.582 126.016 103.582 126.004L103.804 17.1906Z" fill="url(#paint0_linear_0_4)"/>
<path id="Vector_2" d="M52.045 0.000339718C23.4425 -0.0584872 0.239478 7.53019 0.222671 16.9467C0.201661 26.3632 23.3753 34.0443 51.982 34.1032C80.5845 34.162 103.788 26.5733 103.809 17.1568C103.821 7.74029 80.6517 0.0591667 52.045 0.000339718Z" fill="url(#paint1_linear_0_4)"/>
</g>
<defs>
<linearGradient id="paint0_linear_0_4" x1="-1.72783" y1="79.9266" x2="110.501" y2="80.142" gradientUnits="userSpaceOnUse">
<stop stop-color="#44E8C5"/>
<stop offset="0.31" stop-color="#63C9D5"/>
<stop offset="0.72" stop-color="#056262"/>
<stop offset="1" stop-color="#0A151D"/>
</linearGradient>
<linearGradient id="paint1_linear_0_4" x1="37.1699" y1="35.8934" x2="103.647" y2="-48.505" gradientUnits="userSpaceOnUse">
<stop stop-color="#44E8C5"/>
<stop offset="0.72" stop-color="#056262"/>
<stop offset="1" stop-color="#0A151D"/>
</linearGradient>
<clipPath id="clip0_0_4">
<rect width="103.804" height="142.983" fill="white"/>
</clipPath>
</defs>
</svg>
