<svg preserveAspectRatio="none" overflow="visible" style="display: block;" width="17.9948" height="17.9948" viewBox="0 0 17.9948 17.9948" fill="none" xmlns="http://www.w3.org/2000/svg">
<g id="Icon" clip-path="url(#clip0_0_86)">
<path id="Vector" d="M8.9974 14.9957V16.4952" stroke="#17a5fb" stroke-width="1.3" stroke-linecap="round" stroke-linejoin="round"/>
<path id="Vector_2" d="M8.9974 1.49957V2.99913" stroke="#17a5fb" stroke-width="1.3" stroke-linecap="round" stroke-linejoin="round"/>
<path id="Vector_3" d="M12.7463 14.9957V16.4952" stroke="#17a5fb" stroke-width="1.3" stroke-linecap="round" stroke-linejoin="round"/>
<path id="Vector_4" d="M12.7463 1.49957V2.99913" stroke="#17a5fb" stroke-width="1.3" stroke-linecap="round" stroke-linejoin="round"/>
<path id="Vector_5" d="M1.49957 8.9974H2.99913" stroke="#17a5fb" stroke-width="1.3" stroke-linecap="round" stroke-linejoin="round"/>
<path id="Vector_6" d="M1.49957 12.7463H2.99913" stroke="#17a5fb" stroke-width="1.3" stroke-linecap="round" stroke-linejoin="round"/>
<path id="Vector_7" d="M1.49957 5.24848H2.99913" stroke="#17a5fb" stroke-width="1.3" stroke-linecap="round" stroke-linejoin="round"/>
<path id="Vector_8" d="M14.9957 8.9974H16.4952" stroke="#17a5fb" stroke-width="1.3" stroke-linecap="round" stroke-linejoin="round"/>
<path id="Vector_9" d="M14.9957 12.7463H16.4952" stroke="#17a5fb" stroke-width="1.3" stroke-linecap="round" stroke-linejoin="round"/>
<path id="Vector_10" d="M14.9957 5.24848H16.4952" stroke="#17a5fb" stroke-width="1.3" stroke-linecap="round" stroke-linejoin="round"/>
<path id="Vector_11" d="M5.24848 14.9957V16.4952" stroke="#17a5fb" stroke-width="1.3" stroke-linecap="round" stroke-linejoin="round"/>
<path id="Vector_12" d="M5.24848 1.49957V2.99913" stroke="#17a5fb" stroke-width="1.3" stroke-linecap="round" stroke-linejoin="round"/>
<path id="Vector_13" d="M13.4961 2.99913H4.4987C3.67051 2.99913 2.99913 3.67051 2.99913 4.4987V13.4961C2.99913 14.3243 3.67051 14.9957 4.4987 14.9957H13.4961C14.3243 14.9957 14.9957 14.3243 14.9957 13.4961V4.4987C14.9957 3.67051 14.3243 2.99913 13.4961 2.99913Z" stroke="#17a5fb" stroke-width="1.3" stroke-linecap="round" stroke-linejoin="round"/>
<path id="Vector_14" d="M11.2467 5.99826H6.74805C6.33395 5.99826 5.99826 6.33395 5.99826 6.74805V11.2467C5.99826 11.6608 6.33395 11.9965 6.74805 11.9965H11.2467C11.6608 11.9965 11.9965 11.6608 11.9965 11.2467V6.74805C11.9965 6.33395 11.6608 5.99826 11.2467 5.99826Z" stroke="#17a5fb" stroke-width="1.3" stroke-linecap="round" stroke-linejoin="round"/>
</g>
<defs>
<clipPath id="clip0_0_86">
<rect width="17.9948" height="17.9948" fill="white"/>
</clipPath>
</defs>
</svg>
